<mxfile host="Electron" agent="Mozilla/5.0 (Windows NT 10.0; Win64; x64) AppleWebKit/537.36 (KHTML, like Gecko) draw.io/28.1.2 Chrome/138.0.7204.243 Electron/37.4.0 Safari/537.36" version="28.1.2">
  <diagram name="Page-1" id="Sdc8llLJoqLEpNyhaRRn">
    <mxGraphModel dx="803" dy="1282" grid="1" gridSize="10" guides="1" tooltips="1" connect="1" arrows="1" fold="1" page="1" pageScale="1" pageWidth="850" pageHeight="1100" math="0" shadow="0">
      <root>
        <mxCell id="0" />
        <mxCell id="1" parent="0" />
        <mxCell id="A4hQEKeoffk2_Y2XVmS7-1" value="&lt;span&gt;&lt;font style=&quot;font-size: 70px;&quot;&gt;Integration Model&lt;/font&gt;&lt;/span&gt;" style="text;html=1;align=center;verticalAlign=middle;whiteSpace=wrap;rounded=0;fontStyle=1" parent="1" vertex="1">
          <mxGeometry x="243.75" y="200" width="1202.5" height="30" as="geometry" />
        </mxCell>
        <mxCell id="A4hQEKeoffk2_Y2XVmS7-2" value="&lt;font style=&quot;font-size: 40px;&quot;&gt;How tables are related&lt;/font&gt;" style="text;html=1;align=center;verticalAlign=middle;whiteSpace=wrap;rounded=0;fontStyle=1" parent="1" vertex="1">
          <mxGeometry x="530" y="260" width="630" height="30" as="geometry" />
        </mxCell>
        <mxCell id="A4hQEKeoffk2_Y2XVmS7-3" value="crm_cust_info" style="swimlane;fontStyle=1;childLayout=stackLayout;horizontal=1;startSize=50;horizontalStack=0;resizeParent=1;resizeParentMax=0;resizeLast=0;collapsible=1;marginBottom=0;whiteSpace=wrap;html=1;rounded=1;fillColor=#dae8fc;strokeColor=#6c8ebf;fontSize=26;align=center;" parent="1" vertex="1">
          <mxGeometry x="597.5" y="653" width="210" height="150" as="geometry" />
        </mxCell>
        <mxCell id="A4hQEKeoffk2_Y2XVmS7-4" value="cst_id&lt;div&gt;cst_key&lt;/div&gt;" style="text;strokeColor=none;fillColor=none;align=left;verticalAlign=middle;spacingLeft=4;spacingRight=4;overflow=hidden;points=[[0,0.5],[1,0.5]];portConstraint=eastwest;rotatable=0;whiteSpace=wrap;html=1;rounded=1;sketch=1;curveFitting=1;jiggle=2;fontSize=26;fontStyle=1" parent="A4hQEKeoffk2_Y2XVmS7-3" vertex="1">
          <mxGeometry y="50" width="210" height="70" as="geometry" />
        </mxCell>
        <mxCell id="lccpfS_vCdzyikMalKH3-3" value="&lt;span&gt;&lt;font style=&quot;font-size: 25px;&quot;&gt;CUSTOMER&lt;/font&gt;&lt;/span&gt;" style="text;html=1;align=center;verticalAlign=middle;whiteSpace=wrap;rounded=0;fillColor=#d5e8d4;strokeColor=#82b366;fontStyle=1" vertex="1" parent="A4hQEKeoffk2_Y2XVmS7-3">
          <mxGeometry y="120" width="210" height="30" as="geometry" />
        </mxCell>
        <mxCell id="A4hQEKeoffk2_Y2XVmS7-7" value="&lt;font style=&quot;font-size: 18px;&quot;&gt;Customer Information&lt;/font&gt;" style="text;html=1;align=center;verticalAlign=middle;whiteSpace=wrap;rounded=0;fontStyle=1" parent="1" vertex="1">
          <mxGeometry x="610" y="614" width="185" height="30" as="geometry" />
        </mxCell>
        <mxCell id="A4hQEKeoffk2_Y2XVmS7-8" value="crm_prd_info" style="swimlane;fontStyle=1;childLayout=stackLayout;horizontal=1;startSize=40;horizontalStack=0;resizeParent=1;resizeParentMax=0;resizeLast=0;collapsible=1;marginBottom=0;whiteSpace=wrap;html=1;rounded=1;fillColor=#dae8fc;strokeColor=#6c8ebf;fontSize=26;align=center;" parent="1" vertex="1">
          <mxGeometry x="597.5" y="473" width="210" height="110" as="geometry" />
        </mxCell>
        <mxCell id="A4hQEKeoffk2_Y2XVmS7-9" value="prd_key" style="text;strokeColor=none;fillColor=none;align=left;verticalAlign=middle;spacingLeft=4;spacingRight=4;overflow=hidden;points=[[0,0.5],[1,0.5]];portConstraint=eastwest;rotatable=0;whiteSpace=wrap;html=1;rounded=1;sketch=1;curveFitting=1;jiggle=2;fontSize=26;fontStyle=1" parent="A4hQEKeoffk2_Y2XVmS7-8" vertex="1">
          <mxGeometry y="40" width="210" height="40" as="geometry" />
        </mxCell>
        <mxCell id="lccpfS_vCdzyikMalKH3-2" value="&lt;span&gt;&lt;font style=&quot;font-size: 25px;&quot;&gt;PRODUCT&lt;/font&gt;&lt;/span&gt;" style="text;html=1;align=center;verticalAlign=middle;whiteSpace=wrap;rounded=0;fillColor=#f8cecc;strokeColor=#b85450;fontStyle=1" vertex="1" parent="A4hQEKeoffk2_Y2XVmS7-8">
          <mxGeometry y="80" width="210" height="30" as="geometry" />
        </mxCell>
        <mxCell id="A4hQEKeoffk2_Y2XVmS7-10" value="&lt;font style=&quot;font-size: 18px;&quot;&gt;History &amp;amp; Current&amp;nbsp;&lt;/font&gt;&lt;div&gt;&lt;font style=&quot;font-size: 18px;&quot;&gt;Product Information&lt;/font&gt;&lt;/div&gt;" style="text;html=1;align=center;verticalAlign=middle;whiteSpace=wrap;rounded=0;fontStyle=1" parent="1" vertex="1">
          <mxGeometry x="597.5" y="433" width="220" height="30" as="geometry" />
        </mxCell>
        <mxCell id="A4hQEKeoffk2_Y2XVmS7-16" style="edgeStyle=orthogonalEdgeStyle;rounded=0;orthogonalLoop=1;jettySize=auto;html=1;exitX=1.005;exitY=0.175;exitDx=0;exitDy=0;exitPerimeter=0;fontStyle=1" parent="1" source="A4hQEKeoffk2_Y2XVmS7-12" target="A4hQEKeoffk2_Y2XVmS7-9" edge="1">
          <mxGeometry relative="1" as="geometry">
            <mxPoint x="507.5" y="603" as="sourcePoint" />
            <Array as="points">
              <mxPoint x="488.5" y="623" />
              <mxPoint x="560.5" y="623" />
              <mxPoint x="560.5" y="523" />
            </Array>
          </mxGeometry>
        </mxCell>
        <mxCell id="A4hQEKeoffk2_Y2XVmS7-11" value="crm_sales_details" style="swimlane;fontStyle=1;childLayout=stackLayout;horizontal=1;startSize=50;horizontalStack=0;resizeParent=1;resizeParentMax=0;resizeLast=0;collapsible=1;marginBottom=0;whiteSpace=wrap;html=1;rounded=1;fillColor=#dae8fc;strokeColor=#6c8ebf;fontSize=26;align=center;" parent="1" vertex="1">
          <mxGeometry x="277.5" y="563" width="210" height="160" as="geometry" />
        </mxCell>
        <mxCell id="A4hQEKeoffk2_Y2XVmS7-12" value="prd_key&lt;div&gt;cst_id&lt;/div&gt;" style="text;strokeColor=none;fillColor=none;align=left;verticalAlign=middle;spacingLeft=4;spacingRight=4;overflow=hidden;points=[[0,0.5],[1,0.5]];portConstraint=eastwest;rotatable=0;whiteSpace=wrap;html=1;rounded=1;sketch=1;curveFitting=1;jiggle=2;fontSize=26;fontStyle=1" parent="A4hQEKeoffk2_Y2XVmS7-11" vertex="1">
          <mxGeometry y="50" width="210" height="80" as="geometry" />
        </mxCell>
        <mxCell id="lccpfS_vCdzyikMalKH3-7" value="&lt;span style=&quot;font-size: 25px;&quot;&gt;&lt;span&gt;SALES&lt;/span&gt;&lt;/span&gt;" style="text;html=1;align=center;verticalAlign=middle;whiteSpace=wrap;rounded=0;fillColor=#e1d5e7;strokeColor=#9673a6;fontStyle=1" vertex="1" parent="A4hQEKeoffk2_Y2XVmS7-11">
          <mxGeometry y="130" width="210" height="30" as="geometry" />
        </mxCell>
        <mxCell id="A4hQEKeoffk2_Y2XVmS7-13" value="&lt;font style=&quot;font-size: 15px;&quot;&gt;Transactional Records about&amp;nbsp;&lt;/font&gt;&lt;div&gt;&lt;font style=&quot;font-size: 15px;&quot;&gt;Sales &amp;amp; Orders&lt;/font&gt;&lt;/div&gt;" style="text;html=1;align=center;verticalAlign=middle;whiteSpace=wrap;rounded=0;fontStyle=1" parent="1" vertex="1">
          <mxGeometry x="280" y="523" width="205" height="40" as="geometry" />
        </mxCell>
        <mxCell id="A4hQEKeoffk2_Y2XVmS7-14" style="edgeStyle=orthogonalEdgeStyle;rounded=0;orthogonalLoop=1;jettySize=auto;html=1;entryX=-0.01;entryY=0.3;entryDx=0;entryDy=0;entryPerimeter=0;fontStyle=1" parent="1" source="A4hQEKeoffk2_Y2XVmS7-12" target="A4hQEKeoffk2_Y2XVmS7-4" edge="1">
          <mxGeometry relative="1" as="geometry">
            <mxPoint x="722.5" y="723" as="targetPoint" />
            <Array as="points">
              <mxPoint x="560.5" y="663" />
              <mxPoint x="560.5" y="723" />
            </Array>
          </mxGeometry>
        </mxCell>
        <mxCell id="A4hQEKeoffk2_Y2XVmS7-17" value="erp_cust_az12" style="swimlane;fontStyle=1;childLayout=stackLayout;horizontal=1;startSize=45;horizontalStack=0;resizeParent=1;resizeParentMax=0;resizeLast=0;collapsible=1;marginBottom=0;whiteSpace=wrap;html=1;rounded=1;fillColor=#fff2cc;strokeColor=#d6b656;fontSize=26;align=center;" parent="1" vertex="1">
          <mxGeometry x="1042.5" y="580" width="210" height="115" as="geometry" />
        </mxCell>
        <mxCell id="A4hQEKeoffk2_Y2XVmS7-18" value="cid" style="text;strokeColor=none;fillColor=none;align=left;verticalAlign=middle;spacingLeft=4;spacingRight=4;overflow=hidden;points=[[0,0.5],[1,0.5]];portConstraint=eastwest;rotatable=0;whiteSpace=wrap;html=1;rounded=1;sketch=1;curveFitting=1;jiggle=2;fontSize=26;fontStyle=1" parent="A4hQEKeoffk2_Y2XVmS7-17" vertex="1">
          <mxGeometry y="45" width="210" height="40" as="geometry" />
        </mxCell>
        <mxCell id="lccpfS_vCdzyikMalKH3-5" value="&lt;span style=&quot;font-size: 25px;&quot;&gt;&lt;span&gt;CUSTOMER&lt;/span&gt;&lt;/span&gt;" style="text;html=1;align=center;verticalAlign=middle;whiteSpace=wrap;rounded=0;fillColor=#d5e8d4;strokeColor=#82b366;fontStyle=1" vertex="1" parent="A4hQEKeoffk2_Y2XVmS7-17">
          <mxGeometry y="85" width="210" height="30" as="geometry" />
        </mxCell>
        <mxCell id="A4hQEKeoffk2_Y2XVmS7-19" value="&lt;span style=&quot;font-size: 18px;&quot;&gt;Extra Customer Information (Birthdate)&lt;/span&gt;" style="text;html=1;align=center;verticalAlign=middle;whiteSpace=wrap;rounded=0;fontStyle=1" parent="1" vertex="1">
          <mxGeometry x="1042.5" y="535" width="220" height="30" as="geometry" />
        </mxCell>
        <mxCell id="A4hQEKeoffk2_Y2XVmS7-20" style="edgeStyle=orthogonalEdgeStyle;rounded=0;orthogonalLoop=1;jettySize=auto;html=1;entryX=1.005;entryY=0.786;entryDx=0;entryDy=0;entryPerimeter=0;exitX=0;exitY=0.5;exitDx=0;exitDy=0;fontStyle=1" parent="1" source="A4hQEKeoffk2_Y2XVmS7-18" target="A4hQEKeoffk2_Y2XVmS7-4" edge="1">
          <mxGeometry relative="1" as="geometry">
            <Array as="points">
              <mxPoint x="977" y="645" />
              <mxPoint x="977" y="758" />
            </Array>
          </mxGeometry>
        </mxCell>
        <mxCell id="A4hQEKeoffk2_Y2XVmS7-21" value="erp_loc_a101" style="swimlane;fontStyle=1;childLayout=stackLayout;horizontal=1;startSize=50;horizontalStack=0;resizeParent=1;resizeParentMax=0;resizeLast=0;collapsible=1;marginBottom=0;whiteSpace=wrap;html=1;rounded=1;fillColor=#fff2cc;strokeColor=#d6b656;fontSize=26;align=center;" parent="1" vertex="1">
          <mxGeometry x="1047.5" y="778" width="210" height="120" as="geometry" />
        </mxCell>
        <mxCell id="A4hQEKeoffk2_Y2XVmS7-24" value="cid" style="text;strokeColor=none;fillColor=none;align=left;verticalAlign=middle;spacingLeft=4;spacingRight=4;overflow=hidden;points=[[0,0.5],[1,0.5]];portConstraint=eastwest;rotatable=0;whiteSpace=wrap;html=1;rounded=1;sketch=1;curveFitting=1;jiggle=2;fontSize=26;fontStyle=1" parent="A4hQEKeoffk2_Y2XVmS7-21" vertex="1">
          <mxGeometry y="50" width="210" height="40" as="geometry" />
        </mxCell>
        <mxCell id="lccpfS_vCdzyikMalKH3-4" value="&lt;span style=&quot;font-size: 25px;&quot;&gt;&lt;span&gt;CUSTOMER&lt;/span&gt;&lt;/span&gt;" style="text;html=1;align=center;verticalAlign=middle;whiteSpace=wrap;rounded=0;fillColor=#d5e8d4;strokeColor=#82b366;fontStyle=1" vertex="1" parent="A4hQEKeoffk2_Y2XVmS7-21">
          <mxGeometry y="90" width="210" height="30" as="geometry" />
        </mxCell>
        <mxCell id="A4hQEKeoffk2_Y2XVmS7-23" value="&lt;font style=&quot;font-size: 18px;&quot;&gt;Location of Customers&amp;nbsp;&lt;/font&gt;&lt;div&gt;&lt;font style=&quot;font-size: 18px;&quot;&gt;(Country)&lt;/font&gt;&lt;/div&gt;" style="text;html=1;align=center;verticalAlign=middle;whiteSpace=wrap;rounded=0;fontStyle=1" parent="1" vertex="1">
          <mxGeometry x="1062.5" y="723" width="190" height="30" as="geometry" />
        </mxCell>
        <mxCell id="A4hQEKeoffk2_Y2XVmS7-27" style="edgeStyle=orthogonalEdgeStyle;rounded=0;orthogonalLoop=1;jettySize=auto;html=1;entryX=0.99;entryY=0.786;entryDx=0;entryDy=0;entryPerimeter=0;exitX=0;exitY=0.5;exitDx=0;exitDy=0;fontStyle=1" parent="1" source="A4hQEKeoffk2_Y2XVmS7-24" target="A4hQEKeoffk2_Y2XVmS7-4" edge="1">
          <mxGeometry relative="1" as="geometry">
            <mxPoint x="1130.5" y="833" as="sourcePoint" />
            <Array as="points">
              <mxPoint x="1047" y="850" />
              <mxPoint x="977" y="850" />
              <mxPoint x="977" y="758" />
            </Array>
          </mxGeometry>
        </mxCell>
        <mxCell id="A4hQEKeoffk2_Y2XVmS7-32" value="erp_px_cat_g1v2" style="swimlane;fontStyle=1;childLayout=stackLayout;horizontal=1;startSize=50;horizontalStack=0;resizeParent=1;resizeParentMax=0;resizeLast=0;collapsible=1;marginBottom=0;whiteSpace=wrap;html=1;rounded=1;fillColor=#fff2cc;strokeColor=#d6b656;fontSize=26;align=center;" parent="1" vertex="1">
          <mxGeometry x="1042.5" y="388" width="210" height="120" as="geometry" />
        </mxCell>
        <mxCell id="A4hQEKeoffk2_Y2XVmS7-33" value="id" style="text;strokeColor=none;fillColor=none;align=left;verticalAlign=middle;spacingLeft=4;spacingRight=4;overflow=hidden;points=[[0,0.5],[1,0.5]];portConstraint=eastwest;rotatable=0;whiteSpace=wrap;html=1;rounded=1;sketch=1;curveFitting=1;jiggle=2;fontSize=26;fontStyle=1" parent="A4hQEKeoffk2_Y2XVmS7-32" vertex="1">
          <mxGeometry y="50" width="210" height="40" as="geometry" />
        </mxCell>
        <mxCell id="lccpfS_vCdzyikMalKH3-6" value="&lt;span&gt;&lt;font style=&quot;font-size: 25px;&quot;&gt;PRODUCT&lt;/font&gt;&lt;/span&gt;" style="text;html=1;align=center;verticalAlign=middle;whiteSpace=wrap;rounded=0;fillColor=#f8cecc;strokeColor=#b85450;fontStyle=1" vertex="1" parent="A4hQEKeoffk2_Y2XVmS7-32">
          <mxGeometry y="90" width="210" height="30" as="geometry" />
        </mxCell>
        <mxCell id="A4hQEKeoffk2_Y2XVmS7-34" value="&lt;span style=&quot;font-size: 18px;&quot;&gt;Product Categories&lt;/span&gt;" style="text;html=1;align=center;verticalAlign=middle;whiteSpace=wrap;rounded=0;fontStyle=1" parent="1" vertex="1">
          <mxGeometry x="1047.5" y="358" width="190" height="30" as="geometry" />
        </mxCell>
        <mxCell id="A4hQEKeoffk2_Y2XVmS7-35" style="edgeStyle=orthogonalEdgeStyle;rounded=0;orthogonalLoop=1;jettySize=auto;html=1;entryX=1;entryY=0.5;entryDx=0;entryDy=0;fontStyle=1" parent="1" source="A4hQEKeoffk2_Y2XVmS7-33" target="A4hQEKeoffk2_Y2XVmS7-9" edge="1">
          <mxGeometry relative="1" as="geometry" />
        </mxCell>
        <mxCell id="A4hQEKeoffk2_Y2XVmS7-37" value="" style="rounded=1;whiteSpace=wrap;html=1;fillColor=none;strokeColor=#6c8ebf;fontStyle=1" parent="1" vertex="1">
          <mxGeometry x="257.5" y="393" width="592.5" height="437" as="geometry" />
        </mxCell>
        <mxCell id="A4hQEKeoffk2_Y2XVmS7-38" value="" style="rounded=1;whiteSpace=wrap;html=1;fillColor=#dae8fc;strokeColor=#6c8ebf;fontStyle=1" parent="1" vertex="1">
          <mxGeometry x="458.75" y="373" width="190" height="40" as="geometry" />
        </mxCell>
        <mxCell id="A4hQEKeoffk2_Y2XVmS7-39" value="&lt;span&gt;&lt;font style=&quot;font-size: 25px;&quot;&gt;ERP&lt;/font&gt;&lt;/span&gt;" style="text;html=1;align=center;verticalAlign=middle;whiteSpace=wrap;rounded=0;fontStyle=1" parent="1" vertex="1">
          <mxGeometry x="458.75" y="373" width="190" height="40" as="geometry" />
        </mxCell>
        <mxCell id="A4hQEKeoffk2_Y2XVmS7-41" value="" style="rounded=1;whiteSpace=wrap;html=1;fillColor=none;strokeColor=#d6b656;fontStyle=1" parent="1" vertex="1">
          <mxGeometry x="957.5" y="338" width="342.5" height="582" as="geometry" />
        </mxCell>
        <mxCell id="A4hQEKeoffk2_Y2XVmS7-42" value="" style="rounded=1;whiteSpace=wrap;html=1;fillColor=#dae8fc;strokeColor=#6c8ebf;fontStyle=1" parent="1" vertex="1">
          <mxGeometry x="1042.5" y="318" width="190" height="40" as="geometry" />
        </mxCell>
        <mxCell id="A4hQEKeoffk2_Y2XVmS7-43" value="&lt;span&gt;&lt;font style=&quot;font-size: 25px;&quot;&gt;ERP&lt;/font&gt;&lt;/span&gt;" style="text;html=1;align=center;verticalAlign=middle;whiteSpace=wrap;rounded=0;fillColor=#fff2cc;strokeColor=#d6b656;fontStyle=1" parent="1" vertex="1">
          <mxGeometry x="1042.5" y="318" width="207.5" height="40" as="geometry" />
        </mxCell>
      </root>
    </mxGraphModel>
  </diagram>
</mxfile>
